<?xml version="1.0" standalone="no"?>
<!DOCTYPE svg PUBLIC "-//W3C//DTD SVG 20010904//EN"
 "http://www.w3.org/TR/2001/REC-SVG-20010904/DTD/svg10.dtd">
<svg version="1.0" xmlns="http://www.w3.org/2000/svg"
 width="1024.000000pt" height="1024.000000pt" viewBox="0 0 1024.000000 1024.000000"
 preserveAspectRatio="xMidYMid meet">

<g transform="translate(0.000000,1024.000000) scale(0.100000,-0.100000)"
fill="#000000" stroke="none">
<path d="M4890 8009 c-353 -41 -693 -175 -977 -387 -110 -82 -289 -260 -372
-370 -283 -373 -418 -812 -397 -1294 7 -168 34 -367 62 -460 6 -21 105 21
-856 -365 -432 -174 -836 -336 -897 -361 -62 -25 -111 -47 -109 -49 1 -2 23 4
47 13 24 8 283 98 574 199 615 212 1116 393 1470 530 138 53 311 120 385 147
74 28 136 52 138 53 1 1 -8 42 -20 91 -31 122 -33 406 -4 529 61 260 171 460
348 631 214 207 449 317 742 346 347 34 715 -109 961 -373 l61 -65 54 17 c30
9 109 33 175 53 163 51 515 146 537 146 10 0 18 4 18 10 0 5 -25 47 -56 92
-333 490 -814 787 -1397 863 -126 16 -363 18 -487 4z"/>
<path d="M7920 7069 c-791 -44 -1825 -310 -2626 -676 -302 -139 -612 -325
-779 -470 -141 -121 -225 -256 -225 -359 0 -380 990 -427 2303 -109 881 213
1820 622 2212 962 336 293 270 534 -170 624 -186 37 -396 46 -715 28z m355
-149 c92 -29 145 -80 145 -137 0 -79 -91 -179 -258 -282 -400 -247 -1325 -572
-2032 -714 -640 -129 -1150 -130 -1270 -2 -33 35 -37 94 -10 149 148 307 1409
796 2490 966 250 39 384 49 630 46 213 -3 242 -5 305 -26z m315 -381 c-246
-213 -926 -514 -1590 -704 -168 -48 -402 -107 -406 -102 -2 2 44 19 103 37
776 237 1299 449 1743 704 91 52 170 95 175 95 6 0 -6 -13 -25 -30z"/>
<path d="M7735 6899 c-677 -57 -1574 -291 -2224 -580 -269 -120 -483 -250
-570 -345 -57 -62 -71 -103 -47 -139 41 -63 127 -85 356 -92 360 -11 825 63
1403 222 622 171 1221 408 1517 599 94 61 176 139 190 181 22 68 -37 120 -162
144 -83 15 -338 21 -463 10z"/>
<path d="M6968 5415 c-9 -9 -516 -134 -738 -181 l-225 -48 -60 -56 c-360 -337
-895 -422 -1335 -214 -52 25 -116 59 -143 76 -30 19 -55 29 -70 25 -29 -6
-718 -198 -867 -242 -959 -280 -1151 -337 -1146 -342 2 -2 88 17 192 42 300
73 1001 235 1016 235 8 0 22 -15 33 -32 37 -64 315 -498 512 -798 171 -261
692 -1056 837 -1275 l46 -70 -188 -7 c-585 -23 -959 -92 -929 -172 15 -37 265
-92 527 -115 472 -42 918 -42 1390 -1 406 36 606 106 482 169 -113 57 -460
104 -874 117 -114 4 -208 9 -208 10 0 2 173 264 383 581 875 1318 1124 1714
1259 2003 46 97 128 287 128 296 0 6 -16 5 -22 -1z"/>
<path d="M3575 5225 c-258 -89 -686 -237 -950 -329 -264 -92 -587 -204 -717
-249 -131 -44 -236 -82 -234 -84 3 -4 781 207 951 258 55 16 314 90 575 165
261 74 579 165 706 201 l232 66 -45 66 c-25 36 -46 66 -47 67 0 1 -212 -72
-471 -161z"/>
</g>
</svg>
