<?xml version="1.0" encoding="UTF-8"?>
<svg id="Layer_1" data-name="Layer 1" xmlns="http://www.w3.org/2000/svg" viewBox="0 0 500 500">
  <path d="m118.32,248.88c-.65.9-.65,2.16.02,3.09l21.15,27.85h-9.64l-17.49-23.11-17.57,23.11h-9.56l21.17-27.89c.65-.9.65-2.16-.02-3.09l-21.15-27.85h9.56l17.57,23.1,17.49-23.1h9.64l-21.17,27.88Zm21.49,30.86h7.58v-58.83h-7.58v58.83Zm56.19-46.43v.05s0,34.16,0,34.16c-.2,6.79-5.71,12.31-12.27,12.31h-21.15c-6.74-.1-12.16-5.5-12.36-12.31v-34.21c.2-6.71,5.6-12.12,12.31-12.31h21.25c6.66.19,12.03,5.6,12.22,12.31Zm-7.66.05c-.06-2.52-2.06-4.55-4.66-4.7h-21.08c-2.63.07-4.65,2.11-4.72,4.74v34.07c.06,2.64,2.06,4.63,4.74,4.7h21.11c2.5-.06,4.55-2.14,4.61-4.74v-34.07Zm71.93-12.97c-2.06,0-3.87,1.01-4.97,2.78-.03.05-.06.11-.09.16l-22.34,46.6-22.35-46.6c-.03-.05-.05-.11-.09-.16-1.09-1.76-2.9-2.78-4.97-2.78-2.96,0-6.02,2.2-6.02,5.89v51.85c0,.94.76,1.7,1.7,1.7h4.18c.94,0,1.7-.76,1.7-1.7v-44.31l21.67,45.04c.28.59.88.96,1.53.96h5.29c.65,0,1.25-.37,1.53-.96l21.67-45.04v44.31c0,.94.76,1.7,1.7,1.7h4.18c.94,0,1.7-.76,1.7-1.7v-51.85c0-3.69-3.07-5.89-6.03-5.89Zm-176.51,6.42v53.02H16.09l3.44-3.4,53.32-53.05c1.43-1.47,2.45-2.18,3.98-2.37.3-.06.6-.09.91-.09,2.96,0,6.03,2.21,6.03,5.9Zm-27.5,23.9h15.2c1.42-.04,2.67-.7,3.5-1.74.64-.8,1.08-1.83,1.08-2.95v-14.94l-19.78,19.62Zm19.82,21.39v-2.84s-.01,0-.01,0v-6.16c0-2.44-2-4.38-4.67-4.53h-20.96c-1.1.06-1.9.12-3.24,1.22l-10.37,10.31h-.01l-1.99,1.98h-.01s41.26.01,41.26.01Zm253.9-47.97c-2.37-2.4-5.62-3.78-8.93-3.78h-32.06c-.94,0-1.7.76-1.7,1.7v26.51l2.58,2.88,5.06,5.65v-24.2c.15-2.77,2.12-4.75,4.8-4.82h21.41c2.55,0,4.7,2.19,4.7,4.78v34.56c0,2.52-2.13,4.63-4.7,4.7h-12.77l4.66,5.21,2.25,2.51h5.88c6.81-.1,12.49-5.8,12.39-12.41v-34.54c.05-3.25-1.22-6.36-3.57-8.74Zm13.46-3.96h-4.23c-.94,0-1.7.76-1.7,1.7v56.17c0,.94.76,1.7,1.7,1.7h4.23c.94,0,1.7-.76,1.7-1.7v-56.17c0-.94-.76-1.7-1.7-1.7Zm37.91,26.01h-21.45c-2.68-.06-4.76-2.14-4.82-4.78v-8.6c.06-2.73,2.09-4.76,4.78-4.82h25.66c.94,0,1.7-.76,1.7-1.7v-4.32c0-.94-.76-1.7-1.7-1.7h-25.69c-6.8.1-12.28,5.57-12.48,12.45v8.74c.2,6.88,5.68,12.35,12.5,12.45h21.39c2.64.06,4.67,2.14,4.74,4.78v8.6c-.06,2.64-2.14,4.76-4.69,4.82h-27.91c-.94,0-1.7.76-1.7,1.7v4.32c0,.94.76,1.7,1.7,1.7h27.91c6.74,0,12.31-5.6,12.41-12.5v-8.67c-.1-6.88-5.64-12.48-12.35-12.48Zm54.89,25.92h-27.78c-2.65-.06-4.67-2.09-4.82-4.83v-34.48c.15-2.75,2.2-4.82,4.78-4.82h27.82c.94,0,1.7-.76,1.7-1.7v-4.32c0-.94-.76-1.7-1.7-1.7h-27.97c-3.16,0-6.31,1.36-8.64,3.72-2.35,2.39-3.67,5.6-3.63,8.78v34.54c-.1,6.69,5.58,12.42,12.42,12.53h27.82c.94,0,1.7-.76,1.7-1.7v-4.32c0-.94-.76-1.7-1.7-1.7Zm47.67-13.45c-.1-6.88-5.64-12.48-12.35-12.48h-21.46c-2.68-.06-4.75-2.14-4.82-4.78v-8.6c.07-2.73,2.09-4.76,4.78-4.82h25.66c.94,0,1.7-.76,1.7-1.7v-4.32c0-.94-.76-1.7-1.7-1.7h-25.69c-6.8.1-12.28,5.57-12.48,12.45,0,.02,0,.03,0,.05v8.64s0,.03,0,.05c.2,6.88,5.68,12.35,12.5,12.45h21.39c2.64.06,4.67,2.14,4.74,4.78v8.6c-.06,2.64-2.14,4.76-4.69,4.82h-27.91c-.94,0-1.7.76-1.7,1.7v4.32c0,.94.76,1.7,1.7,1.7h27.91c6.74,0,12.31-5.6,12.41-12.5v-8.67Zm-196.57,6.24v12.12c0,1.41,1.15,2.56,2.56,2.56h20.6l-23.16-25.88v11.2Z"/>
</svg>