<svg xml:space="preserve" style="enable-background:new 0 0 500 200;" viewBox="0 0 500 200" y="0px" x="0px" xmlns:xlink="http://www.w3.org/1999/xlink" xmlns="http://www.w3.org/2000/svg" id="Layer_1" version="1.1">
<g>
	<g id="XMLID_4_">
		<path d="M360.7,77.1c5.5-1.4,11.5-0.6,17-1.7c-10.9,5.5-20.4,12.8-28.3,21.3c-7.8,8.5-14.1,19.4-15.1,34.5h-0.1
			c-8.2-4-18.4-6.3-29.6-7.2c11.9-17.4,28.8-31.5,47.8-42.4C355,79.9,358.1,77.8,360.7,77.1z"></path>
		<path d="M329.8,87c-0.9,2.9-2,5.5-3,8.2c-16.5,5.6-38.3,1.2-46.8-8.9c1-0.6,1.9-1.3,3-1.9C293.7,92.2,316.7,93.5,329.8,87z"></path>
		<path d="M286.9,50c-6,5.2-12.8,9.8-18.7,15.1c6.5,14.4,13.2,28.5,19.4,43.2c-7.5-2-15.4-3.7-22.7-5.9c-1.9-8.2-4.2-18.1-6.2-26.9
			c-0.7-3-2-6.8-1.7-9.5c0.9-5.9,6.6-8.3,10.8-11.2c-1.2-1.7-2.7-3.2-4.3-4.9c-5.2-5.6-11.2-11.5-11.4-21.6c0.1,0,0.3,0,0.4,0
			c3.5,1.9,7.1,3.6,10.6,5.5C265.6,44.7,276.5,47.1,286.9,50z"></path>
		<path d="M247.3,28.3c0.1,9.8-6.5,16.3-11.4,21.7c-1.6,1.7-3.2,3.3-4.3,4.9c4.3,2.9,10.1,5.3,10.8,11.4c0.3,2.7-1,6.3-1.7,9.4
			c-2,9.1-4.3,19-6.3,27.1c-7.5,1.7-15.4,4.2-22.6,5.6c6.3-14.5,12.9-28.6,19.4-43.2c-4.6-3.7-9.6-7.6-14.2-11.2
			c-1.6-1.3-3.3-2.3-4.3-3.9c10.8-2.7,21.2-5.6,23.7-16.4c3.6-1.6,7.1-3.5,10.5-5.2C247.1,28.3,247.2,28.3,247.3,28.3z"></path>
		<path d="M216.5,84.5c1,0.6,2,1.2,3,1.9c-8.3,10.1-30.1,14.5-46.6,9.1c-1-2.7-2.2-5.3-3-8.2C183,93.6,206,92.3,216.5,84.5z"></path>
		<path d="M195.3,124.2c-11.5,0.6-21.3,3.2-29.5,7.2h-0.1c-2.9-30.1-23-44-43.5-55.8c5.5,1.2,11.9,0.3,17,1.6
			c2.4,0.7,5.6,2.9,8.3,4.5C166.8,92.6,183.9,107,195.3,124.2z"></path>
	</g>
	<g>
		<path d="M0,139.2h30.9c3.7,0,6.5,0.7,8.2,2.3c1.7,1.6,2.6,3.9,2.6,6.9v14.1c0,3-0.9,5.3-2.6,6.9c-1.7,1.6-4.5,2.3-8.2,2.3H0V139.2
			z M10.5,162.9h19.3c1.3,0,1.9-0.3,1.9-1v-12.7c0-0.6-0.6-1-1.9-1H10.5V162.9z"></path>
		<path d="M72.5,160.4v11.2H61.3v-11.2c-1.4-1.7-2.9-3.5-4.3-5.2c-1.4-1.7-3-3.6-4.5-5.5c-1.6-1.9-3-3.6-4.5-5.5
			c-1.4-1.7-2.9-3.5-4.3-5.2h13.7l9.8,12.1c1.6-2,3.2-4,4.9-6c1.6-2,3.3-4,4.7-6h13.7L72.5,160.4z"></path>
		<path d="M102.9,149.7v21.7H92.1v-32.4h17l17.7,21.6v-21.7h10.6v32.4h-16.8L102.9,149.7z"></path>
		<path d="M151.9,171.4l-12.7,0.1l17.8-32.5h13.4l17.7,32.5h-12.5l-2.9-5.3h-14.2l4.6-8.2h5.3c-0.4-0.9-0.9-1.6-1.2-2.3
			c-0.4-0.7-0.7-1.4-1.2-2c-0.4-0.7-0.7-1.4-1.2-2.2c-0.4-0.7-0.9-1.4-1.3-2.3L151.9,171.4z"></path>
		<path d="M228.5,171.4v-20.3l-10.1,20.3h-7.5l-10.2-20v20h-10.6v-32.5h16.4l8.1,17.3c1.4-2.9,2.7-5.8,4.2-8.6s2.7-5.8,4-8.6h16.4
			v32.5H228.5z"></path>
		<path d="M254.1,138.9v32.5h-11.2v-32.5L254.1,138.9z"></path>
		<path d="M258,148.3c0-3.2,0.9-5.5,2.6-7.1c1.7-1.6,4.5-2.3,8.2-2.3h27.5v9.2h-26.3c-0.7,0-1.2,0.1-1.4,0.3
			c-0.3,0.1-0.4,0.4-0.4,0.6l-0.1,2.6v7.3c0,0.4,0,0.7,0,1.2s0,0.9,0,1.2c0,0.7,0.7,1.2,2,1.2h26.3v9.1h-27.5
			c-3.7,0-6.5-0.7-8.2-2.3c-1.7-1.6-2.6-3.9-2.6-7.1L258,148.3z"></path>
		<path d="M319.1,138.9h30.9c3.7,0,6.5,0.7,8.2,2.3c1.7,1.6,2.6,3.9,2.6,6.9v14.1c0,3-0.9,5.3-2.6,6.9c-1.7,1.6-4.5,2.3-8.2,2.3
			h-30.9V138.9z M329.8,162.5h19.3c1.3,0,1.9-0.3,1.9-1v-12.7c0-0.6-0.6-1-1.9-1h-19.3V162.5z"></path>
		<path d="M375.4,138.8v32.5h-11.2v-32.5L375.4,138.8z"></path>
		<path d="M417.1,154.6c0.9,1.7,1.3,3.9,1.3,6.3c0,3.6-0.7,6.2-2.4,7.8c-1.6,1.6-4.2,2.4-7.8,2.4h-22.3l-2.7-0.7l-2-1l-1-1.3
			l-0.6-2.2v-3h24.6c0.9,0,1.6-0.1,2.3-0.4c0.7-0.3,1-0.9,1-1.6c0-0.9-0.4-1.3-1.2-1.6c-0.4-0.1-1-0.3-1.6-0.3s-1.3,0-2,0
			c-0.1,0-0.4,0-1,0c-0.4,0-1,0-1.9,0h-1.4c-1.9,0-3.3-0.1-4.5,0c-1.2,0-1.9,0-2.3,0c-0.4,0-0.9,0-1.3,0s-0.9,0-1.3,0
			c-0.3,0-0.4,0-0.7,0s-0.4,0-0.6,0h-0.7c-3.2-0.1-5.5-1.3-6.8-3.2c-0.6-0.7-0.9-1.6-1.2-2.6c-0.3-1-0.4-2.3-0.4-3.6
			c0-3.5,0.7-6,2-7.8c1.3-1.7,3.6-2.6,6.8-2.6l23.5,0.1l2.2,0.7l1.7,0.9l1.3,1.4l1,1.9l0.1,3.3h-24.6c-0.9,0-1.6,0.1-2.2,0.4
			s-1,0.9-1,1.6c0,0.7,0.3,1.2,0.9,1.4s1.3,0.4,2.3,0.4h1.7c0.4,0,1.3,0.1,2.7,0.1h1.3c1.6,0,2.9,0.1,4,0c1.2,0,2,0,2.6,0
			c0.4,0,0.7,0,1.2,0c0.3,0,0.7,0,1,0c0.1,0,0.3,0,0.6,0c0.1,0,0.3,0,0.4,0c0.4,0,0.9,0,1.2,0c0.3,0,0.7,0,1,0c1.6,0.1,2.9,0.4,4,1
			C415.5,152.7,416.4,153.5,417.1,154.6L417.1,154.6z"></path>
		<path d="M420.3,148.1c0-3.2,0.9-5.5,2.6-7.1c1.7-1.6,4.5-2.3,8.2-2.3h27.5v9.2h-26.3c-0.7,0-1.2,0.1-1.4,0.3
			c-0.3,0.1-0.4,0.4-0.4,0.6l-0.1,2.6v7.3c0,0.4,0,0.7,0,1.2s0,0.9,0,1.2c0,0.7,0.7,1.2,2,1.2h26.3v9.1h-27.5
			c-3.7,0-6.5-0.7-8.2-2.3c-1.7-1.6-2.6-3.9-2.6-7.1V148.1z"></path>
		<path d="M498.7,154.5c0.9,1.7,1.3,3.9,1.3,6.3c0,3.6-0.7,6.2-2.4,7.8c-1.6,1.6-4.2,2.4-7.8,2.4h-22.3l-2.7-0.7l-2-1l-1-1.3
			l-0.6-2.2v-3h24.6c0.9,0,1.6-0.1,2.3-0.4c0.7-0.3,1-0.9,1-1.6c0-0.9-0.4-1.3-1.2-1.6c-0.4-0.1-1-0.3-1.6-0.3s-1.3,0-2,0
			c-0.1,0-0.4,0-1,0c-0.4,0-1,0-1.9,0H480c-1.9,0-3.3-0.1-4.5,0c-1.2,0-1.9,0-2.3,0c-0.4,0-0.9,0-1.3,0c-0.4,0-0.9,0-1.3,0
			c-0.3,0-0.4,0-0.7,0c-0.3,0-0.4,0-0.6,0h-0.7c-3.2-0.1-5.5-1.3-6.8-3.2c-0.6-0.7-0.9-1.6-1.2-2.6c-0.3-1-0.4-2.3-0.4-3.6
			c0-3.5,0.7-6,2-7.8c1.3-1.7,3.6-2.6,6.8-2.6l23.5,0.1l2.2,0.7l1.7,0.9l1.3,1.4l1,1.9l0.1,3.3h-24.6c-0.9,0-1.6,0.1-2.2,0.4
			s-1,0.9-1,1.6c0,0.7,0.3,1.2,0.9,1.4s1.3,0.4,2.3,0.4h1.7c0.4,0,1.3,0.1,2.7,0.1h1.3c1.6,0,2.9,0.1,4,0c1.2,0,2,0,2.6,0
			c0.4,0,0.7,0,1.2,0c0.3,0,0.7,0,1,0c0.1,0,0.3,0,0.6,0c0.1,0,0.3,0,0.4,0c0.4,0,0.9,0,1.2,0c0.3,0,0.7,0,1,0c1.6,0.1,2.9,0.4,4,1
			C497.3,152.6,498.1,153.5,498.7,154.5L498.7,154.5z"></path>
	</g>
</g>
</svg>
