<?xml version="1.0" encoding="UTF-8"?>
<svg id="Layer_1" data-name="Layer 1" xmlns="http://www.w3.org/2000/svg" viewBox="0 0 500 500">
  <path d="m86.61,257.65c-2.48,1.62-5.37,2.82-8.6,3.56-3.29.76-6.79,1.14-10.4,1.14-1.9,0-4.18-.12-6.79-.36-2.57-.23-5.21-.68-7.86-1.36-2.6-.67-5.09-1.61-7.4-2.79-2.03-1.04-3.65-2.35-4.83-3.92l.65-7.66c1.39.96,2.86,1.8,4.38,2.53,2.26,1.08,4.61,1.96,7,2.62,2.38.65,4.77,1.13,7.08,1.43,2.32.31,4.53.46,6.58.46,1.18,0,2.48-.06,3.95-.18,1.52-.13,2.96-.44,4.28-.94,1.35-.5,2.53-1.22,3.52-2.13,1.12-1.04,1.69-2.47,1.69-4.24,0-2.13-.84-3.82-2.48-5.05-1.41-1.05-3.26-1.94-5.52-2.65-1.87-.56-3.85-1.05-5.89-1.47-1.98-.41-4.04-.89-6.11-1.43-2.02-.52-4.01-1.16-5.91-1.89-1.85-.72-3.59-1.65-5.16-2.77-1.74-1.25-3.14-2.87-4.15-4.81-1.01-1.93-1.52-4.38-1.52-7.28,0-3.36.71-6.29,2.12-8.72,1.43-2.46,3.36-4.53,5.74-6.16,2.41-1.65,5.22-2.89,8.33-3.69,3.16-.81,6.49-1.22,9.92-1.22,1.72,0,3.75.13,6.03.4,2.27.26,4.45.78,6.5,1.55,1.97.73,3.66,1.8,5.02,3.16,1.26,1.25,1.87,2.89,1.87,5.01,0,.84-.12,1.69-.36,2.53-.22.78-.57,1.48-1.06,2.1-.49.61-1.08,1.11-1.81,1.51-.66.36-1.52.55-2.56.55-1.78,0-3.32-.6-4.7-1.83-1.34-1.19-1.99-2.87-1.99-5.14v-.95l-.89-.32c-.91-.32-1.91-.57-3.01-.74-2.26-.33-4.25-.32-6.71.05-1.36.2-2.68.6-3.92,1.2-1.28.62-2.37,1.47-3.24,2.52-.96,1.15-1.44,2.62-1.44,4.38,0,2,.64,3.63,1.89,4.84,1.13,1.09,2.61,1.99,4.38,2.64,1.96.76,4.11,1.29,6.42,1.57,2.18.27,4.39.59,6.63.95,2.17.34,4.36.84,6.51,1.49,2.03.61,3.97,1.6,5.76,2.95,1.75,1.32,3.22,3.05,4.36,5.16,1.12,2.08,1.69,4.75,1.69,7.94,0,3.6-.73,6.7-2.17,9.22-1.45,2.54-3.42,4.63-5.84,6.22Zm48.29-50.69h-42.1v6.49h16.03v41.17h10.68v-41.17h15.38v-6.49Zm49.77,47.58l.06.08h-13.04l-15.82-24.06h-5.68v24.06h-10.17v-47.66h23.94c1.97,0,3.98.2,5.99.59,1.93.38,3.7,1.02,5.26,1.9,1.5.86,2.7,1.99,3.66,3.46.91,1.4,1.37,3.25,1.37,5.48,0,1.69-.29,3.21-.86,4.52-.59,1.33-1.38,2.49-2.35,3.44-.99.96-2.21,1.77-3.62,2.4-1.44.65-3.03,1.14-4.72,1.46l-2.13.41,18.11,23.91Zm-22.73-30.39c2.02,0,3.72-.32,5.06-.97,1.14-.54,2.5-1.77,2.5-4.5,0-1.12-.25-2.08-.76-2.85-.49-.76-1.15-1.34-1.94-1.74-.71-.36-1.53-.59-2.41-.71-.8-.11-1.63-.16-2.45-.16h-11.75v10.93h11.75Zm88.31-17.19l20.31,47.66h-11.71l-5.78-14.81h-20.36l-6.29,14.81h-39.32v-47.66h34.87v5.77h-24.49v12.72h10.4v6.06h-10.4v16.27h25.69l17.45-40.81h9.64Zm.26,26.29l-7.28-18.47-7.86,18.47h15.13Zm68.95,21.37v-47.66h-11.11l-11.79,29.45-12.19-29.45h-11.77v47.66h6.2v-35.66l14.81,35.66h1.87l14.32-36.09v36.09h9.67Zm5.47-47.66v47.66h36.67v-7.64h-25.56v-40.02h-11.11Zm42.67,0v47.66h10.82v-47.66h-10.82Zm50.59,47.66v-47.66h-6.12v25.5l-18.36-25.5h-9.67v47.66h7.21v-33.51l25.28,33.51h1.67Zm26.11-23.12v-6.06h-10.4v-12.72h24.48v-5.77h-34.87v47.66h35.74v-6.85h-25.35v-16.27h10.4Zm-298.64,43.41v-1.66h12.91c5.91,0,10.03.28,12.37.85,3.44.83,6.23,2.38,8.37,4.65,2.37,2.5,3.55,5.38,3.55,8.64,0,2.22-.58,4.28-1.75,6.18-1.17,1.9-2.7,3.44-4.6,4.6-1.58.98-3.47,1.66-5.68,2.06-2.22.4-4.44.61-6.69.61h-18.48v-1.66h1.51l.49.02c.64,0,1.17-.1,1.57-.3.41-.2.7-.46.87-.79.12-.26.18-.83.18-1.74v-18.46c0-1.05-.09-1.73-.26-2.04-.24-.41-.63-.69-1.17-.85-.31-.08-1.37-.12-3.19-.12Zm9.41,23.82h7.84c.78,0,2.07-.11,3.88-.32,1.81-.21,3.1-.47,3.88-.77,1.14-.45,2.25-1.17,3.33-2.17,1.07-1,1.9-2.19,2.48-3.58.58-1.39.87-2.99.87-4.78s-.29-3.33-.87-4.64c-.58-1.3-1.45-2.48-2.62-3.52-1.17-1.04-2.47-1.84-3.89-2.38-1.42-.55-3.02-.9-4.79-1.04-.96-.07-2.55-.09-4.78-.09h-5.32v23.31Zm43.26-25.49h13.84v1.66h-1.06c-1,0-1.73.11-2.17.32-.45.21-.78.51-.99.9-.21.39-.31,1.15-.31,2.28v17.79c0,.9.11,1.53.34,1.9.23.38.54.65.95.82.41.17,1.14.26,2.19.26h1.06v1.66h-13.84v-1.66h1.14c1.02,0,1.74-.09,2.17-.26.42-.18.73-.44.92-.77.19-.34.28-.99.28-1.95v-18.2c0-1.03-.09-1.72-.28-2.06-.19-.35-.5-.61-.92-.78-.42-.16-1.15-.25-2.17-.25h-1.14v-1.66Zm53.43,0h1.87l2.77,8.51-2.41.55c-1.52-2.38-3.54-4.27-6.06-5.64-2.07-1.15-4.37-1.72-6.89-1.72-1.52,0-2.88.2-4.09.62-1.21.42-2.11.95-2.72,1.61-.61.66-.9,1.33-.9,2.01,0,.62.23,1.22.7,1.8.47.58,1.17,1.09,2.13,1.52.95.45,2.51.91,4.67,1.39l6.77,1.53c.83.18,2.04.54,3.61,1.06,1.58.53,2.81,1.09,3.69,1.68.88.58,1.57,1.31,2.07,2.16.5.85.75,1.77.75,2.76,0,2.19-1.26,4.11-3.77,5.75-2.52,1.65-5.77,2.46-9.76,2.46-2.06,0-3.9-.23-5.52-.69-1.63-.45-3.37-1.26-5.26-2.42l-1.19,2.63h-1.82l-2.41-9.91,2.41-.38c.88,1.84,2.05,3.39,3.51,4.67,1.46,1.28,3.08,2.24,4.85,2.9,1.77.65,3.57.98,5.41.98,2.49,0,4.67-.57,6.53-1.72,1.55-.96,2.33-2.09,2.33-3.4,0-1.2-.56-2.19-1.69-2.95-1.14-.77-3.18-1.47-6.12-2.14l-6.48-1.42c-3.63-.8-6.19-1.83-7.67-3.08-1.48-1.25-2.23-2.69-2.23-4.32,0-1.26.48-2.44,1.45-3.51.97-1.08,2.45-1.98,4.46-2.7,2.01-.73,4.2-1.09,6.59-1.09,2,0,3.92.27,5.76.79,1.29.36,2.49.9,3.57,1.58l1.09-1.9Zm50.13,0h1.87l3.28,9.2-2.41.51c-1.3-2.12-2.28-3.54-2.95-4.27-1.11-1.17-2.49-2.1-4.14-2.78-1.65-.69-3.46-1.03-5.45-1.03-2.33,0-4.48.48-6.44,1.44-1.97.95-3.55,2.35-4.78,4.21-1.22,1.85-1.82,3.92-1.82,6.24s.61,4.49,1.85,6.36c1.23,1.86,2.91,3.29,5.02,4.3,2.11,1,4.38,1.5,6.82,1.5,2.3,0,4.64-.5,7.05-1.51,2.4-1.01,4.49-2.41,6.25-4.23l2.07,1.09c-1.07,1.21-2.23,2.24-3.47,3.08-1.97,1.36-4.02,2.36-6.15,3.01-2.12.65-4.46.97-7,.97-5.61,0-10.18-1.59-13.69-4.77-2.9-2.63-4.35-5.77-4.35-9.41,0-2.67.8-5.1,2.41-7.27,1.61-2.17,3.83-3.89,6.65-5.18,2.83-1.28,5.88-1.92,9.14-1.92,1.74,0,3.36.18,4.86.55,1.49.36,3.01.95,4.55,1.75l.84-1.82Zm45.43,0h1.87l2.77,8.51-2.41.55c-1.52-2.38-3.54-4.27-6.06-5.64-2.07-1.15-4.37-1.72-6.89-1.72-1.52,0-2.88.2-4.09.62-1.2.42-2.11.95-2.71,1.61-.61.66-.91,1.33-.91,2.01,0,.62.23,1.22.7,1.8.47.58,1.18,1.09,2.13,1.52.95.45,2.51.91,4.67,1.39l6.77,1.53c.83.18,2.04.54,3.62,1.06,1.58.53,2.81,1.09,3.69,1.68.88.58,1.57,1.31,2.08,2.16.5.85.75,1.77.75,2.76,0,2.19-1.26,4.11-3.77,5.75-2.52,1.65-5.78,2.46-9.76,2.46-2.06,0-3.9-.23-5.52-.69-1.63-.45-3.38-1.26-5.26-2.42l-1.2,2.63h-1.82l-2.41-9.91,2.41-.38c.88,1.84,2.05,3.39,3.51,4.67,1.46,1.28,3.08,2.24,4.85,2.9,1.77.65,3.57.98,5.41.98,2.49,0,4.67-.57,6.53-1.72,1.56-.96,2.33-2.09,2.33-3.4,0-1.2-.56-2.19-1.68-2.95-1.14-.77-3.18-1.47-6.12-2.14l-6.48-1.42c-3.62-.8-6.18-1.83-7.67-3.08-1.49-1.25-2.23-2.69-2.23-4.32,0-1.26.48-2.44,1.45-3.51.97-1.08,2.46-1.98,4.46-2.7,2.01-.73,4.2-1.09,6.58-1.09,2.01,0,3.92.27,5.75.79,1.3.36,2.49.9,3.58,1.58l1.09-1.9Zm-211.03,4.19c-4.42,3.47-10.19,6.36-13.32,6.36,3.12,0,8.9,2.89,13.32,6.37v-12.73Zm227.38,12.73c4.42-3.47,10.2-6.36,13.32-6.36-3.12,0-8.9-2.9-13.32-6.37v12.73Zm95.51-27c0-.8-.64-1.44-1.45-1.44H95.48c-.79,0-1.44.64-1.44,1.44s.64,1.44,1.44,1.44h362.26c.8,0,1.45-.64,1.45-1.44Z"/>
</svg>