<svg viewBox="0 0 352.5 346.2" version="1.1" xmlns="http://www.w3.org/2000/svg" id="Layer_1">
  
  <defs>
    <style>
      .st0 {
        fill: #fff;
      }
    </style>
  </defs>
  <path d="M176.2,64.8c-59.6-.3-108.2,47.9-108.5,107.5-.3,59.6,47.9,108.2,107.5,108.5,59.6.3,108.2-47.9,108.5-107.5.3-59.6-47.9-108.2-107.5-108.5ZM175.8,269.7h-.4c-25.9-.1-50.2-10.3-68.4-28.7-18.2-18.4-28.2-42.7-28.1-68.6.2-53.2,43.7-96.4,96.9-96.4h.4c53.4.2,96.7,43.9,96.4,97.3-.2,53.2-43.7,96.4-96.8,96.4Z" class="st0"></path>
  <path d="M228.4,196.7c3.6-2.6,7-4.2,9.7-3.4h0c1.2.3,4.4-1.7,7.3-6.8-1.6-1.1-3.3-1.9-5.1-2.2-5.9-1-11.7,1.4-16.7,4.6-5,3.3-9.5,7.4-13.8,12.4-3,3.6-5.5,7-7.4,10.9,3.1.3,6.4,1.3,9.4,2.4.7-1.2,1.6-2.4,2.5-3.5.8-1.3,1.8-2.5,2.9-3.6,3.7-4.5,7.6-8.1,11.2-10.8Z" class="st0"></path>
  <path d="M234.8,222.4c-5.4,6.5-12.3,9.9-17.5,10.9-5.4.9-9.2-.3-10.5-2.7h0c-.7-1.1-4.3-1.8-9.3-1.7,0,1.8.2,3.7.9,5.4,1,2.8,2.9,5.2,5.6,6.9,2.7,1.6,6.3,2.4,10.5,2.4,8.3-.3,19.3-5.1,27.7-15,5.8-7,9-14.8,9.9-21.7-3.8,2.9-7.5,4.5-11.2,4.7-1.2,3.6-3.3,7.3-6.1,10.8Z" class="st0"></path>
  <path d="M195.4,247c-2,.7-4,1.5-6.3,1.7-8.3,1.6-15.7-.4-20.4-2.8-4.7-2.8-6.8-6.1-6.3-8.8h0c.1-1.3-2.2-4.2-6.1-7.3-1.1,1.4-2.2,2.9-2.8,4.7-1,2.8-1.1,5.8,0,8.9,1,3,3.2,5.9,6.5,8.6,6.6,5.1,18,8.5,30.8,6.2,8.9-1.6,16.5-5.5,21.6-10.3-4.7,0-8.6-1.5-11.6-3.5-1.6,1-3.4,1.9-5.4,2.6Z" class="st0"></path>
  <path d="M180.7,227c1.5-.3,2.9-.8,4.5-1,5.7-1.1,11-1.3,15.5-1.1,4.5.4,8.1,1.2,9.6,3.6h0c.4.5,1.5.9,3.2,1,1.7,0,4-.4,6.8-1.4-.5-1.8-1.3-3.5-2.5-4.9-1.9-2.3-4.4-3.9-7.2-5.1-2.7-1.2-5.6-1.7-8.6-2.2-6-.7-12-.5-18.5.6-4.5,1-8.7,1.8-12.7,3.6,2.1,2.2,4.1,5.1,5.7,8,1.3-.5,2.7-.8,4.2-1.1Z" class="st0"></path>
  <path d="M166.3,237.7c0,.6.6,1.6,1.9,2.8,1.3,1.2,3.3,2.2,6.1,3.3.8-1.7,1.3-3.5,1.3-5.3,0-3-.9-5.9-2.2-8.5-1.4-2.6-3.2-4.9-5.2-7.2-4.1-4.4-8.9-8.1-14.5-11.4-4.1-2.2-7.9-4.1-12-5.4,0,3.2,0,6.5-.8,9.8,1.3.5,2.6,1.1,3.9,1.8,1.3.7,2.7,1.3,4.1,2.2,5.1,2.8,9.3,6.1,12.6,9.1,1.6,1.6,2.9,3.2,3.9,4.6.9,1.5,1.4,3,1.2,4.3h0Z" class="st0"></path>
  <path d="M149,243.7c-.9-.1-1.9-.3-2.9-.5-1-.3-1.9-.6-2.9-.9-1.9-.7-4-1.5-5.9-2.7-7.4-4.1-11.9-10.4-13.8-15.3-.9-2.6-1.2-4.9-1.1-6.7.2-1.8.9-3.3,2-4.1h0c.4-.4.7-1.6.7-3.2,0-.8,0-1.8-.2-2.8-.1-1.1-.2-2.2-.5-3.5-1.8.4-3.6.9-5.2,1.8-5.2,2.9-8,9.2-6.3,17.5,1.7,8.1,8.3,18.2,19.6,24.6,7.9,4.5,16.2,6.4,23.1,6-3.5-3.1-5.7-6.7-6.6-10.2Z" class="st0"></path>
  <path d="M126.8,216.5c-.7.8-.9,4.8,2.2,9.8,1.7-.8,3.2-1.8,4.4-3.3,1.9-2.3,3.1-5.1,3.7-7.9.3-1.4.5-2.9.6-4.3.1-1.5.2-3.1,0-4.5-.3-6.1-1.6-12-3.8-18.1-.9-2.1-1.5-4.2-2.7-6.1-.7-2-2.1-3.8-3-5.7-1.1,1.3-2.1,2.5-3.2,3.6-1.1,1.2-2.4,2.3-3.7,3.3.5,1.3,1.3,2.5,1.9,3.9.5,1.4,1.1,2.8,1.7,4.3.9,2.8,1.9,5.3,2.4,7.9.8,2.4,1,5,1.4,7.1.5,4.5.1,8.2-1.9,10.1h0Z" class="st0"></path>
  <path d="M109.6,209.9c-1.3-1.4-2.3-3.1-3.5-4.8-1.2-1.8-2-3.8-2.8-5.9-1.6-3.9-2-7.9-2.2-11.4.2-3.6.4-6.7,1.5-9.3,1-2.6,2.1-4.5,3.4-5.8,1.4-1.3,2.8-1.9,4.2-1.9h0c.6,0,1.5-.8,2.6-2,.5-.6,1.1-1.4,1.6-2.3.6-.9,1.3-1.9,1.9-3-1.6-.9-3.3-1.7-5.2-2-5.8-1.1-12.1,1.9-16,9.4-3.9,7.3-5.3,19.3-.8,31.5,1.4,4.3,3.7,8,6,11.4,2.6,3.2,5,6,7.9,8-.4-2.3-.4-4.5,0-6.5.3-2,.8-3.9,1.5-5.5Z" class="st0"></path>
  <path d="M125.3,174c3.7-4.9,6.5-10.2,8.7-16.3.7-2.2,1.5-4.2,1.9-6.4.7-2,.9-4.3,1.3-6.3-1.6.3-3.2.5-4.8.7-1.6.2-3.3.2-5,.2-.4,1.3-.6,2.8-1.1,4.2-.5,1.4-.9,2.9-1.4,4.4-1.1,2.7-2,5.3-3.3,7.6-.9,2.4-2.4,4.5-3.5,6.4-1.2,1.9-2.6,3.5-3.9,4.6-1.3,1.1-2.6,1.8-4,1.9h0c-.6,0-1.4.8-2.3,2.3-.5.7-.9,1.7-1.3,2.8-.3,1.1-.6,2.4-.9,3.8,1.8.5,3.7.7,5.5.3,6-1.1,10.4-5.3,14.1-10.1Z" class="st0"></path>
  <path d="M96.6,161.9c1.5-1.4,3.1-2.4,4.7-3.2-.1-1.9.2-3.9.5-5.9.3-2.1.8-4.2,1.7-6.3,1.3-4,3.5-7.3,5.6-10.1,2.4-2.6,4.6-4.9,7.1-6.2,4.7-2.8,8.8-2.8,10.8-1h0c1,.7,4.5.1,9.3-1.6-.7-1.7-1.5-3.4-2.7-4.9-1.9-2.3-4.5-3.8-7.6-4.4-1.6-.3-3.3-.4-5.1-.2-1.8.3-3.6.8-5.6,1.5-7.7,3-16.5,11.3-20.9,23.6-1.7,4.2-2.3,8.6-2.7,12.6,0,4.1,0,7.8.9,11.2,1.1-2,2.6-3.7,4.1-5Z" class="st0"></path>
  <path d="M127.7,114.1c1.2-1.4,2.6-2.8,4.2-4.2,1.5-1.4,3.4-2.6,5.3-3.8,7.3-4.1,14.9-5.3,20.2-4.3,2.7.4,4.8,1.2,6.3,2.4,1.5,1.1,2.4,2.4,2.6,3.7h0c.2.6,1,1.4,2.4,2.2,1.4.8,3.4,1.8,5.8,2.6.6-1.8,1.1-3.6,1.1-5.5,0-3-.9-5.8-2.9-8.3-2-2.4-5.1-4.7-9.1-5.9-7.9-2.7-20-2-31.2,4.6-8,4.4-13.5,10.9-16.7,17,4.5-1.4,8.6-1.5,12.1-.6Z" class="st0"></path>
  <path d="M148.7,126c-5.1,2.8-9.8,5.2-14.2,6.3-2.1.7-4.1,1-5.9,1-1.8,0-3.2-.3-4.3-1.1h0c-.5-.3-1.7-.3-3.3.2-.8.3-1.8.7-2.8,1.3-1,.6-2,1.4-3.1,2.4,1.1,1.5,2.4,2.8,4,3.8,5.3,3,11.4,2.6,17.3,1.4,6-1.3,11.6-3.6,17.2-6.9,4-2.2,7.4-5,10.7-7.7-2.8-1.6-5.6-3.4-8-5.6-.6.4-1.1.8-1.8,1.2-.6.4-1.2.9-1.8,1.3-1.2.9-2.6,1.5-3.9,2.4Z" class="st0"></path>
  <path d="M152.9,105.6c-.1,1.9,0,3.7.6,5.5,1,2.8,2.8,5.2,5,7.1,2.2,2,4.7,3.7,7.4,5,5.4,2.8,11.2,4.7,17.7,5.8,4.5.9,8.8,1,13.1,1-1.1-3.1-2.1-6.1-2.6-9.4-1.4-.2-2.8-.3-4.3-.4-1.5-.1-3-.5-4.6-.7-5.7-1.2-10.9-2.3-15-4.3-4.1-1.6-7.2-4.1-7.8-6.7h0c-.3-1.1-3.7-3-9.6-2.9Z" class="st0"></path>
  <path d="M176.7,97c1.8-.3,3.8-.5,5.9-.6,2.1,0,4.3.2,6.5.6,8.3,1.5,14.8,5.5,18.2,9.7,3.6,4,4.3,8.2,2.9,10.4h0c-.2.6,0,1.7.5,3.2.6,1.5,1.4,3.6,2.8,5.7,1.6-1,3.1-2,4.3-3.5,2-2.3,3-5.1,3.1-8.2,0-3.1-.9-6.8-3.2-10.3-4.3-7.1-14.1-14.3-26.9-16.5-9-1.7-17.3-.2-23.7,2.2,4.4,1.9,7.6,4.3,9.6,7.3Z" class="st0"></path>
  <path d="M206.9,115c.4-1-.9-4.7-5.5-8.4-1.3,1.4-2.4,2.9-3.1,4.6-1,2.8-1.2,5.8-.8,8.7.4,2.9,1.2,5.9,2.4,8.6,2.3,5.6,5.5,10.8,9.8,15.8,2.9,3.6,6.1,6.5,9.4,9.2,1-3,2.4-6.1,4.1-8.9-2-2-4.1-4-6.1-6.5-3.7-4.5-6.8-8.8-8.7-12.9-2-3.9-2.9-7.7-1.6-10.1h0Z" class="st0"></path>
  <path d="M225.2,115.4c1.6,1,3.3,2,5,3.3,1.6,1.4,3.1,2.9,4.6,4.6,5.3,6.5,7.7,13.7,7.7,19.2,0,5.4-2,9-4.5,9.8h0c-1,.5-2.5,3.9-3.2,8.9,1.8.3,3.6.4,5.5.1,6-1,10.6-5.9,11.9-14.3,1.3-8.3-1.6-20-10-29.9-5.8-7-13.1-11.3-19.7-13.5,2.1,4.3,3.1,8.1,2.7,11.8Z" class="st0"></path>
  <path d="M231.5,157.3c1.1-4.3,2.7-7.8,5.2-8.8h0c1.1-.6,2.3-4.1,1.3-10-1.9.2-3.7.7-5.3,1.6-5.2,3-8,8.6-9.9,14.3-1.7,5.8-2.6,11.7-2.6,18.3-.2,4.7.5,8.9,1.3,13.1,2.7-1.7,5.8-3.1,8.8-4.2-.2-2.8-.6-5.7-.4-8.9-.2-5.9.6-11.1,1.5-15.5Z" class="st0"></path>
  <path d="M256.1,149.8c-1,4.6-2.9,8.2-5.5,10.8,1.5,3.5,2.1,7.7,2.3,12.2-.2,8.4-2.9,15.5-6.4,19.6-1.6,2.1-3.6,3.5-5.3,4.3-1.7.8-3.2.9-4.5.4h0c-1.1-.3-4.5,1.4-8.1,4.7,1.2,1.4,2.5,2.7,4.1,3.6,5.2,3.1,11.9,2.3,18.3-3.3,6.4-5.5,11.6-16.4,11.6-29.3-.2-9-2.6-17.1-6.4-23Z" class="st0"></path>
  <polygon points="175.9 136.3 165.2 157.8 141.4 161.1 158.5 177.9 154.4 201.5 175.6 190.5 196.8 201.7 192.9 178.1 210.1 161.4 186.4 157.8 175.9 136.3" class="st0"></polygon>
</svg>